<?xml version="1.0" encoding="utf-8"?>
<svg viewBox="-0.0002 0.0001 83.3336 82.2711" xmlns="http://www.w3.org/2000/svg">
  <g xmlns="http://www.w3.org/2000/svg">
    <path d="M12.262 7.475h10.799v5.531c.79-.527 1.316-.922 1.712-1.185L38.6 1.154c2.107-1.58 4.477-1.58 6.847.264 6.585 5.004 13.17 10.14 19.753 15.144 5.4 4.082 10.667 8.296 16.066 12.378 1.449 1.054 2.37 2.37 1.976 4.082-.659 3.293-5.005 4.61-8.033 2.24-4.61-3.425-9.087-6.98-13.696-10.536-6.057-4.609-11.983-9.218-17.91-13.827-1.316-1.053-2.106-1.053-3.423 0-10.403 8.165-20.938 16.198-31.605 24.23-.79.527-1.58 1.054-2.502 1.317-2.107.659-4.346-.263-5.4-1.843-1.184-1.58-.79-3.82 1.054-5.268 3.03-2.37 6.19-4.74 9.218-7.243.659-.526 1.186-1.58 1.186-2.37.263-3.95.131-8.033.131-12.247z"/>
    <path d="M30.435 32.1h7.638v10.404H27.67v-7.638c0-1.449 1.316-2.765 2.765-2.765zM27.67 48.693h10.403v10.403h-7.638c-1.58 0-2.765-1.185-2.765-2.765v-7.638zM55.85 34.866v7.638H45.448V32.1h7.638c1.449 0 2.766 1.316 2.766 2.765zM55.85 48.693v2.502c-2.896 2.239-5.003 5.531-6.057 7.375-.132.131-.132.263-.263.526h-3.95V48.693h10.27zM82.32 46.85c0 .131-3.95.658-4.214.79-2.107.395-4.214.658-6.321 1.053-4.346.79-8.56 1.844-12.247 4.082l-1.185.79c-2.239 1.58-4.346 4.346-5.795 6.717-.131.131-.131.263-.263.526-1.975 3.424-3.292 7.112-4.082 10.93-.264 1.054-.395 2.107-.527 3.16 0 .396-.263 3.03-.395 4.61.132-.132.527-.395 1.185-.922.79-.658 1.844-1.448 3.16-2.502 1.318-1.053 2.766-2.37 4.478-3.687.79-.659 1.58-1.449 2.502-2.239.395-.263.659-.658 1.054-.922.526-.395.921-.79 1.448-1.316l2.37-2.37 2.37-2.371c.791-.79 1.45-1.58 2.108-2.239l.263-.263h.395a1.818 1.818 0 0 0-.395.526c-.658.79-1.317 1.449-1.975 2.37-.658.791-1.449 1.581-2.239 2.371-.79.79-1.58 1.58-2.37 2.502-.659.659-1.317 1.317-1.975 1.844-.132.132-.395.263-.527.527-.79.79-1.58 1.58-2.37 2.238a647.506 647.506 0 0 1-4.346 3.95 116.557 116.557 0 0 1-3.16 2.766c-.66.527-1.054.79-1.186.922C84.295 78.85 82.32 46.85 82.32 46.85zM40.312 72.66c-.922-1.185-1.976-2.107-3.03-3.029-11.324-9.481-24.493-2.238-24.493-2.238s1.58 2.238 1.712 2.502c2.765 3.95 5.4 8.296 9.745 10.666 1.712.922 4.082 1.449 6.057 1.58 3.556.396 7.375-.131 10.799-1.316.395-.132 3.819-1.317 3.819-1.449-1.449-2.633-3.03-4.872-4.61-6.716z"/>
  </g>
</svg>