<?xml version="1.0" encoding="utf-8"?>
<svg viewBox="0 0 374.667 82.271" xmlns="http://www.w3.org/2000/svg">
  <g xmlns="http://www.w3.org/2000/svg">
    <path d="M12.262 7.475h10.799v5.531c.79-.527 1.316-.922 1.712-1.185L38.6 1.154c2.107-1.58 4.477-1.58 6.847.264 6.585 5.004 13.17 10.14 19.753 15.144 5.4 4.082 10.667 8.296 16.066 12.378 1.449 1.054 2.37 2.37 1.976 4.082-.659 3.293-5.005 4.61-8.033 2.24-4.61-3.425-9.087-6.98-13.696-10.536-6.057-4.609-11.983-9.218-17.91-13.827-1.316-1.053-2.106-1.053-3.423 0-10.403 8.165-20.938 16.198-31.605 24.23-.79.527-1.58 1.054-2.502 1.317-2.107.659-4.346-.263-5.4-1.843-1.184-1.58-.79-3.82 1.054-5.268 3.03-2.37 6.19-4.74 9.218-7.243.659-.526 1.186-1.58 1.186-2.37.263-3.95.131-8.033.131-12.247z"/>
    <path d="M30.435 32.1h7.638v10.404H27.67v-7.638c0-1.449 1.316-2.765 2.765-2.765zM27.67 48.693h10.403v10.403h-7.638c-1.58 0-2.765-1.185-2.765-2.765v-7.638zM55.85 34.866v7.638H45.448V32.1h7.638c1.449 0 2.766 1.316 2.766 2.765zM55.85 48.693v2.502c-2.896 2.239-5.003 5.531-6.057 7.375-.132.131-.132.263-.263.526h-3.95V48.693h10.27zM82.32 46.85c0 .131-3.95.658-4.214.79-2.107.395-4.214.658-6.321 1.053-4.346.79-8.56 1.844-12.247 4.082l-1.185.79c-2.239 1.58-4.346 4.346-5.795 6.717-.131.131-.131.263-.263.526-1.975 3.424-3.292 7.112-4.082 10.93-.264 1.054-.395 2.107-.527 3.16 0 .396-.263 3.03-.395 4.61.132-.132.527-.395 1.185-.922.79-.658 1.844-1.448 3.16-2.502 1.318-1.053 2.766-2.37 4.478-3.687.79-.659 1.58-1.449 2.502-2.239.395-.263.659-.658 1.054-.922.526-.395.921-.79 1.448-1.316l2.37-2.37 2.37-2.371c.791-.79 1.45-1.58 2.108-2.239l.263-.263h.395a1.818 1.818 0 0 0-.395.526c-.658.79-1.317 1.449-1.975 2.37-.658.791-1.449 1.581-2.239 2.371-.79.79-1.58 1.58-2.37 2.502-.659.659-1.317 1.317-1.975 1.844-.132.132-.395.263-.527.527-.79.79-1.58 1.58-2.37 2.238a647.506 647.506 0 0 1-4.346 3.95 116.557 116.557 0 0 1-3.16 2.766c-.66.527-1.054.79-1.186.922C84.295 78.85 82.32 46.85 82.32 46.85zM40.312 72.66c-.922-1.185-1.976-2.107-3.03-3.029-11.324-9.481-24.493-2.238-24.493-2.238s1.58 2.238 1.712 2.502c2.765 3.95 5.4 8.296 9.745 10.666 1.712.922 4.082 1.449 6.057 1.58 3.556.396 7.375-.131 10.799-1.316.395-.132 3.819-1.317 3.819-1.449-1.449-2.633-3.03-4.872-4.61-6.716z"/>
  </g>
  <path d="M145.606 48.045v22.612H133.74V48.045c0-6.014-1.604-8.66-6.254-8.66-4.811 0-7.618 2.646-7.618 8.66v22.612H108V31.046h11.867v3.769c3.047-2.967 7.217-4.33 10.665-4.33 11.145 0 15.074 5.372 15.074 17.56zm45.575 2.886v2.647h-28.224c0 4.65 4.73 7.938 8.66 7.938 3.848 0 7.376-1.524 9.22-4.891l7.939 7.296c-3.207 4.33-8.099 7.377-17.16 7.377-12.99 0-20.927-8.66-20.927-20.367s7.697-20.446 20.206-20.446 20.286 8.58 20.286 20.446zm-27.984-4.89h15.556c-.642-3.77-3.368-5.774-7.858-5.774-4.33 0-6.976 2.325-7.698 5.773zm67.385-14.995L216.55 50.85l14.032 19.806h-13.63l-6.736-10.905-6.736 10.905H189.77l14.112-19.806-14.112-19.805H203.4l6.736 10.825c2.405-3.528 4.49-7.377 6.815-10.825h13.631zm15.988 22.772c0 2.887-.08 7.698 4.33 7.698 2.165 0 3.528-.882 5.051-2.005v9.783c-1.844 1.042-4.089 2.004-6.494 2.004-10.184 0-14.754-4.33-14.754-17.48v-12.99h-4.41v-9.782h4.41V19.66h11.867v11.386h9.381v9.782h-9.381v12.99zm40.604-40.012v9.382c-1.684-1.524-4.33-1.604-5.052-1.604-4.09 0-4.33 4.33-4.33 7.618v1.844h9.382v9.782h-9.382v29.829h-11.867V40.828h-4.41v-9.782h4.41v-1.844c0-12.509 4.65-17.48 14.754-17.48 2.405 0 4.65.962 6.495 2.084zM303.562 11v59.657h-11.947V11h11.947zm16.308 31.753-8.82-5.052c4.41-4.971 10.344-7.297 16.518-7.297 11.867 0 16.678 6.495 16.678 12.59v27.663H332.38V67.85c-1.844 1.925-5.132 3.368-8.82 3.368-10.825 0-14.995-4.811-14.995-12.188 0-8.34 6.736-13.952 17.64-13.952h6.175c0-2.967-2.245-4.891-5.613-4.891-3.448 0-5.132.641-6.896 2.566zm12.509 14.834v-3.528h-6.976c-3.127 0-5.453 2.165-4.971 5.212.32 2.165 2.245 3.047 4.971 3.047 5.212 0 6.976-2.967 6.976-4.731zm32.906-3.769c0 2.887-.08 7.698 4.33 7.698 2.165 0 3.528-.882 5.052-2.005v9.783c-1.845 1.042-4.09 2.004-6.495 2.004-10.184 0-14.754-4.33-14.754-17.48v-12.99h-4.41v-9.782h4.41V19.66h11.867v11.386h9.382v9.782h-9.382v12.99z"/>
</svg>